<svg version="1.1" id="Layer_1" xmlns:x="ns_extend;" xmlns:i="ns_ai;" xmlns:graph="ns_graphs;" xmlns="http://www.w3.org/2000/svg" xmlns:xlink="http://www.w3.org/1999/xlink" x="0px" y="0px" viewBox="0 0 244.8 100" style="enable-background:new 0 0 244.8 100;" xml:space="preserve">
 <style type="text/css">
  .st0{fill:#6D1ED4;}
 </style>
 <metadata>
  <sfw xmlns="ns_sfw;">
   <slices>
   </slices>
   <sliceSourceBounds bottomLeftOrigin="true" height="100" width="244.8" x="-75.9" y="-236.2">
   </sliceSourceBounds>
  </sfw>
 </metadata>
 <g>
  <path class="st0" d="M144.5,83.8c-1.5-2.6-2.4-5.5-2.8-8.9c-0.1-0.5-0.3-0.9-0.7-1.2c-0.3-0.2-0.7-0.3-1-0.3c-0.1,0-0.2,0-0.3,0
		c-0.6,0.1-1.3,0.2-1.9,0.2c-2,0-3.5-0.3-3.5-4.5v-4c0,0,0,0,0,0V8.6c0-0.9-0.7-1.6-1.6-1.6h-11.4c-0.9,0-1.6,0.7-1.6,1.6v61.8
		c0,4.6,0.4,8.1,2.6,11.3c2.6,3.6,7.8,5.7,12.6,5.7c0.2,0,0.5,0,0.7,0h0c2.9,0,5.7-0.3,8-1.1c0.5-0.2,0.9-0.5,1-1
		C144.8,84.8,144.7,84.3,144.5,83.8">
  </path>
  <path class="st0" d="M175.5,81.8c-2.1-3.1-2.8-3.6-4.2-6.9c-0.2-0.4-0.3-0.9-0.7-1.2c-0.3-0.2-0.6-0.3-1-0.3c-0.1,0-0.2,0-0.3,0
		c-0.6,0.1-1.3,0.2-1.9,0.2c-2,0-3.5-0.3-3.5-4.5v-4c0,0,0,0,0,0V8.6c0-0.9-0.7-1.6-1.6-1.6h-11.4c-0.9,0-1.6,0.7-1.6,1.6v61.8
		c0,4.6,0.4,8.1,2.6,11.3c2.6,3.6,7.8,5.7,12.6,5.7c0.2,0,0.5,0,0.7,0h0c2.9,0,5.7-0.3,8-1.1c0.5-0.2,2.2-1,2.6-1.4
		C176.9,83.7,175.7,82.2,175.5,81.8">
  </path>
  <path class="st0" d="M71.7,50.3c1.2-6.5,6.2-10.7,13.3-10.7c7.1,0,11.9,3.9,13.1,10.7H71.7z M84.8,27.3c-8.7,0-16,3-21.3,8.8
		c-5,5.4-7.7,13.1-7.7,21.5c0,8.6,2.7,15.9,7.8,21.2c5.4,5.6,13.1,8.6,22.3,8.6c9.9,0,18.3-3.5,24.8-10.3c0.6-0.6,0.6-1.8-0.1-2.2
		c-0.7-0.4-4.1-2.7-7.5-7.2c-0.4-0.3-0.7-0.4-1.1-0.4h0c-0.4,0-0.8,0.2-1.1,0.5c-3.9,4.2-8.9,5.9-14.7,5.9c-8.6,0-13.9-4-14.9-11.9
		h39.8c0.8,0,1.5-0.6,1.6-1.4c0.1-1.3,0.2-2.7,0.2-4.1c0-8.1-2.7-15.5-7.5-20.6C100.4,30.1,93.2,27.3,84.8,27.3">
  </path>
  <path class="st0" d="M190.3,50.3c1.2-6.5,6.2-10.7,13.3-10.7c7.1,0,11.9,3.9,13.1,10.7H190.3z M203.4,27.3c-8.7,0-16,3-21.3,8.8
		c-5,5.4-7.7,13.1-7.7,21.5c0,8.6,2.7,15.9,7.8,21.2c5.4,5.6,13.1,8.6,22.3,8.6c9.9,0,18.3-3.5,24.8-10.3c0.6-0.6,0.6-1.8-0.1-2.2
		c-0.7-0.4-4.1-2.7-7.5-7.2c-0.4-0.3-0.7-0.4-1.1-0.4h0c-0.4,0-0.8,0.2-1.1,0.5c-3.9,4.2-8.9,5.9-14.7,5.9c-8.6,0-13.9-4-14.9-11.9
		h39.8c0.8,0,1.5-0.6,1.6-1.4c0.1-1.3,0.2-2.7,0.2-4.1c0-8.1-2.7-15.5-7.5-20.6C218.9,30.1,211.8,27.3,203.4,27.3">
  </path>
  <path class="st0" d="M58.7,83.4c-0.1-0.1-0.1-0.1-0.2-0.2c0,0-0.1-0.1-0.1-0.1c-2.7-2.8-4.8-6.1-6.4-9.8c-0.2-0.6-0.8-1-1.4-1h-1.3
		h-5.8H20.6l36.6-46.9c0.2-0.3,0.3-0.6,0.3-1v-9.1c0-0.9-0.7-1.6-1.6-1.6H38.8h-0.7h-2V0.8c0-0.4-0.4-0.8-0.8-0.8H35h-0.3H23.9h-0.4
		h-0.3c-0.4,0-0.8,0.4-0.8,0.8v13.1h-2.8H19H3.1c-0.9,0-1.6,0.7-1.6,1.6V26c0,0.9,0.7,1.6,1.6,1.6h33.6L0.3,74C0.1,74.3,0,74.7,0,75
		v9.5c0,0.9,0.7,1.6,1.6,1.6h20.9v13.1c0,0.4,0.4,0.8,0.8,0.8h0.3h0.4h10.8H35h0.4c0.4,0,0.8-0.4,0.8-0.8V86.1H45h11.3h1.3
		c0.6,0,1.2-0.4,1.4-1C59.3,84.6,59.1,83.9,58.7,83.4">
  </path>
  <path class="st0" d="M236.6,20.2h1.3c0.3,0,0.5,0,0.8,0c0.3,0,0.5-0.1,0.7-0.2c0.2-0.1,0.3-0.2,0.5-0.4c0.1-0.2,0.2-0.4,0.2-0.7
		c0-0.3-0.1-0.5-0.2-0.6c-0.1-0.2-0.2-0.3-0.4-0.4c-0.2-0.1-0.4-0.1-0.6-0.2c-0.2,0-0.4,0-0.6,0h-1.7V20.2z M235.6,16.7h2.8
		c0.9,0,1.6,0.2,2.1,0.5c0.4,0.4,0.7,0.9,0.7,1.7c0,0.7-0.2,1.2-0.6,1.5c-0.4,0.3-0.9,0.5-1.5,0.6l2.2,3.4h-1.2l-2.1-3.3h-1.4v3.3
		h-1.1V16.7z M232.4,20.6c0,0.8,0.1,1.5,0.4,2.2c0.3,0.7,0.7,1.3,1.2,1.8c0.5,0.5,1.1,0.9,1.8,1.2c0.7,0.3,1.4,0.4,2.2,0.4
		c0.8,0,1.5-0.1,2.2-0.4c0.7-0.3,1.3-0.7,1.8-1.2c0.5-0.5,0.9-1.1,1.2-1.8c0.3-0.7,0.4-1.5,0.4-2.3c0-0.8-0.2-1.6-0.4-2.2
		c-0.3-0.7-0.7-1.3-1.2-1.8c-0.5-0.5-1.1-0.9-1.8-1.2c-0.7-0.3-1.4-0.4-2.2-0.4c-0.8,0-1.5,0.2-2.2,0.4c-0.7,0.3-1.3,0.7-1.8,1.2
		c-0.5,0.5-0.9,1.1-1.2,1.8C232.6,19,232.4,19.8,232.4,20.6 M231.3,20.6c0-1,0.2-1.8,0.5-2.7c0.4-0.8,0.8-1.5,1.5-2.1
		c0.6-0.6,1.3-1.1,2.1-1.4c0.8-0.3,1.7-0.5,2.6-0.5c0.9,0,1.8,0.2,2.6,0.5c0.8,0.3,1.5,0.8,2.1,1.4c0.6,0.6,1.1,1.3,1.5,2.1
		c0.4,0.8,0.5,1.7,0.5,2.6c0,1-0.2,1.8-0.5,2.7c-0.4,0.8-0.8,1.5-1.5,2.1c-0.6,0.6-1.3,1.1-2.1,1.4c-0.8,0.3-1.7,0.5-2.6,0.5
		c-0.9,0-1.8-0.2-2.6-0.5c-0.8-0.3-1.5-0.8-2.1-1.4s-1.1-1.3-1.5-2.1C231.5,22.4,231.3,21.5,231.3,20.6">
  </path>
 </g>
</svg>